<?xml version="1.0" standalone="no"?>
<!DOCTYPE svg PUBLIC "-//W3C//DTD SVG 20010904//EN"
 "http://www.w3.org/TR/2001/REC-SVG-20010904/DTD/svg10.dtd">
<svg version="1.0" xmlns="http://www.w3.org/2000/svg"
 width="1080.000000pt" height="1080.000000pt" viewBox="0 0 1080.000000 1080.000000"
 preserveAspectRatio="xMidYMid meet">
<metadata>
Created by potrace 1.14, written by Peter Selinger 2001-2017
</metadata>
<g transform="translate(0.000000,1080.000000) scale(0.100000,-0.100000)"
fill="#000000" stroke="none">
<path d="M5370 10556 c-73 -39 -707 -407 -717 -415 -7 -6 -14 -11 -17 -11 -2
0 -71 -38 -152 -85 -81 -47 -148 -85 -150 -85 -12 0 -171 -106 -179 -118 -48
-79 2 -172 92 -172 29 0 64 15 147 65 60 36 111 65 113 65 2 0 80 45 174 100
94 55 173 100 175 100 2 0 28 16 58 35 30 19 57 35 59 35 3 0 65 36 140 79 74
43 144 84 156 90 l22 12 -1 -293 c0 -161 0 -369 0 -461 l0 -169 34 -34 c46
-46 101 -48 148 -5 l33 29 5 466 5 465 330 -191 c182 -105 350 -202 375 -216
73 -41 222 -128 260 -151 102 -62 217 22 174 128 -12 32 -31 47 -117 98 -114
67 -667 387 -737 426 -25 14 -91 52 -148 86 -57 34 -105 61 -108 61 -2 0 -33
18 -69 40 -74 45 -71 45 -105 26z"/>
<path d="M1910 8559 c-135 -77 -319 -184 -410 -237 -91 -52 -178 -103 -195
-112 -164 -95 -242 -140 -307 -177 l-78 -44 0 -147 c-2 -774 2 -1275 9 -1294
14 -37 47 -60 95 -65 42 -5 48 -3 81 30 29 29 35 43 36 78 0 24 1 290 1 590
l1 546 36 -20 c20 -11 73 -42 119 -69 45 -26 87 -48 92 -48 6 0 10 -4 10 -10
0 -5 4 -10 10 -10 5 0 55 -27 111 -60 55 -33 102 -60 104 -60 2 0 50 -28 107
-61 161 -96 210 -119 244 -113 96 16 130 132 57 192 -16 12 -53 36 -83 54 -91
51 -105 59 -380 218 -146 84 -276 159 -289 167 l-23 15 55 33 c31 19 75 45 99
58 37 21 174 100 523 302 50 29 143 83 208 120 65 38 125 78 133 90 50 76 -6
175 -99 175 -12 0 -133 -63 -267 -141z"/>
<path d="M8559 8685 c-52 -28 -69 -108 -35 -160 15 -22 54 -46 591 -355 204
-117 383 -221 399 -230 l29 -18 -119 -69 c-66 -38 -238 -138 -384 -222 -146
-84 -273 -161 -283 -170 -27 -26 -37 -82 -21 -119 27 -66 108 -85 178 -43 17
11 47 28 66 39 19 11 134 77 255 147 121 70 238 137 260 150 101 56 118 66
139 80 l22 15 0 -579 c1 -634 0 -627 59 -655 65 -31 133 -8 156 52 8 20 13
835 9 1389 0 58 19 42 -197 164 -21 12 -42 25 -48 29 -5 4 -35 21 -65 37 -30
17 -251 144 -490 282 -452 261 -464 267 -521 236z"/>
<path d="M5340 8326 c-117 -69 -715 -414 -750 -433 -14 -8 -41 -23 -60 -35
-45 -26 -346 -200 -610 -353 -113 -65 -216 -126 -230 -135 -14 -10 -27 -17
-30 -17 -3 0 -16 -6 -30 -15 -22 -14 -155 -91 -265 -153 -116 -66 -411 -237
-414 -241 -2 -2 5 -7 15 -11 10 -3 63 -33 117 -65 55 -32 103 -58 108 -58 5 0
9 -4 9 -10 0 -5 5 -10 10 -10 9 0 130 -68 297 -166 17 -11 62 -37 100 -58 37
-22 149 -86 248 -144 99 -58 198 -114 220 -126 41 -23 531 -306 595 -345 19
-11 42 -24 50 -28 8 -4 129 -73 269 -155 139 -81 255 -148 257 -148 1 0 36
-20 78 -45 l75 -44 153 88 c84 48 209 120 278 159 69 40 132 76 140 81 18 11
287 167 339 196 20 11 58 34 86 50 27 17 66 39 85 50 39 22 242 139 293 169
18 10 154 88 302 174 149 85 302 174 340 197 39 22 77 44 85 48 8 4 36 20 61
35 25 15 101 58 167 97 l121 70 -52 32 c-29 18 -58 33 -64 33 -7 0 -13 5 -13
10 0 6 -4 10 -9 10 -5 0 -128 69 -273 153 -145 84 -270 156 -278 160 -8 4 -29
15 -45 26 -17 10 -120 70 -230 133 -110 64 -216 125 -235 136 -19 11 -57 33
-85 47 -27 15 -57 33 -66 41 -8 8 -18 14 -22 14 -3 0 -86 47 -184 103 -442
257 -893 517 -895 516 -2 0 -28 -15 -58 -33z"/>
<path d="M2836 5339 c0 -1208 3 -1412 15 -1423 8 -7 122 -75 254 -151 241
-138 564 -325 685 -395 102 -60 824 -476 935 -540 55 -31 172 -99 260 -150 88
-51 174 -101 190 -110 17 -10 47 -27 68 -40 20 -12 38 -20 39 -18 0 1 2 637 3
1412 l1 1408 -35 23 c-29 18 -355 206 -476 275 -16 9 -75 43 -130 75 -122 71
-208 121 -255 147 -19 11 -75 44 -125 73 -49 29 -110 64 -135 78 -25 13 -187
107 -360 207 -173 100 -328 190 -345 200 -117 68 -518 298 -550 316 l-40 23 1
-1410z"/>
<path d="M7875 6699 c-55 -33 -427 -248 -623 -360 -165 -95 -696 -402 -767
-443 -49 -29 -214 -124 -365 -211 -151 -87 -350 -202 -441 -255 l-165 -95 0
-1413 c0 -776 1 -1412 3 -1412 2 0 101 56 219 125 119 69 218 125 220 125 3 0
17 8 32 19 15 10 124 74 242 142 205 117 315 180 1131 652 387 224 386 223
507 292 45 26 85 52 89 58 11 19 9 2817 -2 2817 -5 0 -41 -19 -80 -41z"/>
<path d="M966 4299 c-15 -12 -32 -33 -37 -46 -8 -22 -10 -330 -9 -1240 l0
-201 58 -33 c31 -18 66 -38 77 -45 11 -6 63 -36 115 -66 52 -30 201 -116 330
-191 129 -74 329 -189 445 -256 134 -77 220 -121 238 -121 64 0 122 65 111
124 -9 50 -34 74 -147 139 -311 180 -638 368 -683 393 -27 16 -85 49 -127 74
l-78 44 23 18 c13 9 34 23 48 30 14 7 68 38 120 69 52 30 102 58 110 62 8 4
29 16 46 26 17 10 118 69 225 131 107 61 202 119 212 129 46 45 36 129 -21
167 -45 31 -85 25 -168 -24 -38 -22 -85 -49 -104 -60 -19 -10 -147 -85 -285
-164 -240 -139 -309 -178 -318 -178 -2 0 -4 260 -4 578 0 546 -1 580 -18 610
-32 53 -112 68 -159 31z"/>
<path d="M9700 4293 c-21 -19 -34 -41 -38 -68 -4 -22 -7 -290 -6 -596 l1 -557
-31 18 c-17 9 -192 110 -389 224 -198 114 -371 209 -386 211 -37 4 -86 -18
-106 -49 -21 -32 -22 -89 -1 -120 13 -20 260 -172 456 -279 30 -17 71 -40 90
-52 19 -12 67 -39 105 -60 39 -21 77 -44 86 -51 8 -8 20 -14 25 -14 6 0 15 -5
22 -12 13 -13 -13 -29 -421 -263 -630 -363 -590 -337 -601 -398 -7 -42 12 -84
49 -107 65 -40 36 -54 740 355 88 51 176 102 195 113 19 11 96 55 170 97 74
43 154 89 178 103 l42 24 0 91 c3 820 0 1327 -8 1347 -15 39 -47 62 -95 67
-38 5 -48 1 -77 -24z"/>
<path d="M5344 1529 c-11 -6 -28 -23 -37 -39 -15 -25 -17 -77 -17 -484 l-1
-456 -47 26 c-26 15 -74 43 -107 62 -33 19 -74 43 -92 53 -18 10 -196 113
-397 229 -406 234 -414 237 -475 181 -29 -27 -33 -37 -33 -76 0 -66 13 -79
189 -179 76 -44 145 -85 153 -92 8 -7 18 -13 23 -13 4 0 35 -17 70 -37 34 -20
77 -45 94 -55 18 -10 119 -69 225 -130 451 -261 502 -289 520 -283 10 3 46 22
81 43 34 21 82 49 107 63 61 35 411 237 430 248 8 6 56 33 105 61 500 284 526
301 527 355 1 56 -2 66 -33 95 -55 51 -85 44 -288 -73 -478 -275 -727 -419
-741 -428 -8 -5 -32 -19 -52 -30 l-38 -20 0 461 0 461 -34 34 c-27 27 -42 34
-72 33 -22 0 -48 -5 -60 -10z"/>
</g>
</svg>
